<svg width="508" height="65" viewBox="0 0 508 65" fill="none" xmlns="http://www.w3.org/2000/svg">
<path d="M85.1922 43.5176L92.5047 22.4062H96.1961L86.7039 48H83.7156L74.241 22.4062H77.9148L85.1922 43.5176ZM110.462 48H107.087V22.4062H110.462V48ZM138.317 36.1699H127.225V45.2402H140.11V48H123.85V22.4062H139.934V25.1836H127.225V33.4102H138.317V36.1699ZM157.03 39.9316L157.523 43.3066L158.243 40.2656L163.306 22.4062H166.154L171.093 40.2656L171.796 43.3594L172.341 39.9141L176.314 22.4062H179.706L173.501 48H170.425L165.152 29.3496L164.747 27.3984L164.343 29.3496L158.876 48H155.8L149.612 22.4062H152.987L157.03 39.9316ZM211.157 22.4062L219.524 43.2891L227.891 22.4062H232.268V48H228.893V38.0332L229.21 27.2754L220.807 48H218.223L209.839 27.3281L210.173 38.0332V48H206.798V22.4062H211.157ZM265.115 36.0293C265.115 38.5371 264.693 40.7285 263.849 42.6035C263.005 44.4668 261.81 45.8906 260.263 46.875C258.716 47.8594 256.912 48.3516 254.849 48.3516C252.834 48.3516 251.046 47.8594 249.488 46.875C247.929 45.8789 246.716 44.4668 245.849 42.6387C244.994 40.7988 244.554 38.6719 244.531 36.2578V34.4121C244.531 31.9512 244.959 29.7773 245.814 27.8906C246.67 26.0039 247.877 24.5625 249.435 23.5664C251.005 22.5586 252.798 22.0547 254.814 22.0547C256.865 22.0547 258.67 22.5527 260.228 23.5488C261.798 24.5332 263.005 25.9688 263.849 27.8555C264.693 29.7305 265.115 31.916 265.115 34.4121V36.0293ZM261.757 34.377C261.757 31.3418 261.148 29.0156 259.929 27.3984C258.711 25.7695 257.005 24.9551 254.814 24.9551C252.681 24.9551 251 25.7695 249.769 27.3984C248.55 29.0156 247.923 31.2656 247.888 34.1484V36.0293C247.888 38.9707 248.504 41.2852 249.734 42.9727C250.976 44.6484 252.681 45.4863 254.849 45.4863C257.029 45.4863 258.716 44.6953 259.912 43.1133C261.107 41.5195 261.722 39.2402 261.757 36.2754V34.377ZM286.764 37.6465H280.752V48H277.36V22.4062H285.832C288.715 22.4062 290.93 23.0625 292.477 24.375C294.036 25.6875 294.815 27.5977 294.815 30.1055C294.815 31.6992 294.381 33.0879 293.514 34.2715C292.659 35.4551 291.463 36.3398 289.928 36.9258L295.94 47.7891V48H292.319L286.764 37.6465ZM280.752 34.8867H285.938C287.614 34.8867 288.944 34.4531 289.928 33.5859C290.924 32.7188 291.422 31.5586 291.422 30.1055C291.422 28.5234 290.948 27.3105 289.998 26.4668C289.061 25.623 287.702 25.1953 285.92 25.1836H280.752V34.8867ZM321.228 36.1699H310.136V45.2402H323.021V48H306.761V22.4062H322.845V25.1836H310.136V33.4102H321.228V36.1699Z" fill="#333333"/>
<line y1="-0.5" x2="86.7668" y2="-0.5" transform="matrix(1 0.000275219 -0.000183268 1 373.367 18.8506)" stroke="#333333"/>
<line x1="355" y1="18.3506" x2="363.867" y2="18.3506" stroke="#333333"/>
<line x1="388.567" y1="52.5" x2="397.433" y2="52.5" stroke="#333333"/>
<line x1="407.567" y1="52.5" x2="507" y2="52.5" stroke="#333333"/>
<line y1="-0.5" x2="72.6024" y2="-0.5" transform="matrix(0.697865 0.71623 -0.56424 0.825611 456.333 1)" stroke="#333333"/>
<line y1="-0.5" x2="48.3302" y2="-0.5" transform="matrix(0.707632 0.706582 -0.553687 0.832725 373.367 18.8506)" stroke="#333333"/>
<line y1="-0.5" x2="48.3302" y2="-0.5" transform="matrix(0.707632 0.706582 -0.553687 0.832725 363.867 18.8506)" stroke="#333333"/>
<line y1="-0.5" x2="48.3302" y2="-0.5" transform="matrix(0.707632 0.706582 -0.553687 0.832725 355 18.8506)" stroke="#333333"/>
<line y1="-0.5" x2="18.2507" y2="-0.5" transform="matrix(0.208211 0.978084 -0.952512 0.304502 456.333 1)" stroke="#333333"/>
</svg>
